<?xml version="1.0" encoding="UTF-8"?>
<svg id="Layer_1" data-name="Layer 1" xmlns="http://www.w3.org/2000/svg" version="1.1" viewBox="0 0 34.8 32">
  <defs>
    <style>
      .cls-1 {
        fill: #ff5a20;
        stroke-width: 0px;
      }
    </style>
  </defs>
  <path class="cls-1" d="M33.4,4.2H9.4v-.3c-.5-2.2-2.5-3.9-4.8-3.9H1.7C.8,0,0,.8,0,1.7s.8,1.7,1.7,1.7h2.9c.8,0,1.4.5,1.5,1.2l3.6,17.7c.6,3,3.3,5.1,6.2,5.1h12.8c.9,0,1.7-.8,1.7-1.7s-.8-1.7-1.7-1.7h-12.8c-1.4,0-2.7-1-2.9-2.4l-.3-1.4h14.8c1.8,0,3.4-1.2,3.9-2.9l3.3-11.1c.4-1.1-.4-2.1-1.4-2.1ZM15.5,27.8c1.2,0,2.1,1,2.1,2.1s-1,2.1-2.1,2.1-2.1-1-2.1-2.1,1-2.1,2.1-2.1ZM28.4,27.8c1.2,0,2.1,1,2.1,2.1s-1,2.1-2.1,2.1-2.1-1-2.1-2.1.9-2.1,2.1-2.1Z"/>
</svg>