<?xml version="1.0" encoding="UTF-8"?>
<svg id="Layer_1" data-name="Layer 1" xmlns="http://www.w3.org/2000/svg" xmlns:xlink="http://www.w3.org/1999/xlink" version="1.1" viewBox="0 0 282 81">
  <defs>
    <style>
      .cls-1 {
        clip-path: url(#clippath);
      }

      .cls-2 {
        fill: none;
      }

      .cls-2, .cls-3, .cls-4, .cls-5 {
        stroke-width: 0px;
      }

      .cls-3 {
        fill: #6ead44;
      }

      .cls-6 {
        clip-path: url(#clippath-1);
      }

      .cls-4 {
        fill: #cbdb2a;
      }

      .cls-5 {
        fill: #667430;
      }
    </style>
    <clipPath id="clippath">
      <rect class="cls-2" width="281.7" height="80.3"/>
    </clipPath>
    <clipPath id="clippath-1">
      <rect class="cls-2" width="281.7" height="80.3"/>
    </clipPath>
  </defs>
  <g class="cls-1">
    <path class="cls-5" d="M276.2,72h1.7v-3.6c0-.8.6-1.2,1.2-1.2s1,.5,1,1.2v3.7h1.7v-4.2c0-1.4-.8-2.3-2.1-2.3s-1.4.4-1.7.8v-.6h-1.7v6.3ZM270.6,68.8c0-1.2.6-1.9,1.4-1.9s1.4.7,1.4,1.9-.5,1.9-1.4,1.9-1.4-.7-1.4-1.9M275.1,68.8c0-2-1.3-3.3-3.1-3.3s-3.1,1.3-3.1,3.3,1.3,3.3,3.1,3.3,3.1-1.3,3.1-3.3M267.9,65.7h-1.7v6.3h1.7v-6.3ZM266.2,64.9h1.7v-1.6h-1.7v1.6ZM262.2,70.4c0,1.3.7,1.7,1.9,1.7s.8,0,1.1,0v-1.4c-.2,0-.3,0-.6,0-.5,0-.8,0-.8-.6v-2.9h1.3v-1.4h-1.3v-1.8h-1.7v1.8h-.8v1.4h.8v3.3ZM260.7,65.7h-1.7v3.7c0,.8-.6,1.2-1.2,1.2s-1-.5-1-1.2v-3.8h-1.7v4.2c0,1.4.8,2.3,2.1,2.3s1.4-.4,1.7-.8v.6h1.7v-6.3ZM249.6,68.7c0-1.1.6-1.7,1.4-1.7s1.5.8,1.5,1.8-.5,1.8-1.5,1.8-1.4-.6-1.4-1.7v-.3ZM251.4,72.1c1.7,0,2.7-1.5,2.7-3.3s-1-3.3-2.7-3.3-1.4.3-1.8.8v-3h-1.7v8.6h1.7v-.6c.4.5,1,.8,1.8.8M246.6,65.7h-1.7v6.3h1.7v-6.3ZM244.9,64.9h1.7v-1.6h-1.7v1.6ZM244,65.7c-.1,0-.2,0-.4,0-.8,0-1.4.4-1.7.9v-.9h-1.7v6.3h1.7v-3.2c0-1,.7-1.5,1.5-1.5s.3,0,.5,0v-1.6ZM236.2,70.4c0,1.3.7,1.7,1.9,1.7s.8,0,1.1,0v-1.4c-.2,0-.3,0-.6,0-.5,0-.8,0-.8-.6v-2.9h1.3v-1.4h-1.3v-1.8h-1.7v1.8h-.8v1.4h.8v3.3ZM229.4,70.9c.6.8,1.8,1.2,2.9,1.2s2.7-.8,2.7-2.1-1.3-1.7-2.4-1.9c-.8-.2-1.2-.2-1.2-.6s.3-.6.9-.6,1.3.3,1.7.8l1-1.1c-.5-.6-1.5-1.1-2.6-1.1s-2.6.8-2.6,2,1.1,1.6,2.1,1.8c1,.2,1.5.3,1.5.7s-.5.6-1.1.6-1.5-.4-1.9-1l-1,1.1ZM228.6,65.7h-1.7v6.3h1.7v-6.3ZM226.9,64.9h1.7v-1.6h-1.7v1.6ZM220.3,70.5v-5.6h1.2c1.7,0,2.6,1.1,2.6,2.8s-1,2.8-2.6,2.8h-1.2ZM218.6,72h3c2.7,0,4.4-1.7,4.4-4.3s-1.7-4.3-4.4-4.3h-3v8.6ZM213.1,68.7v.3c0,1.1-.6,1.7-1.4,1.7s-1.5-.8-1.5-1.8.5-1.8,1.5-1.8,1.4.6,1.4,1.7M211.3,72.1c.8,0,1.4-.3,1.8-.8v.6h1.7v-8.6h-1.7v3c-.4-.5-1-.8-1.8-.8-1.7,0-2.7,1.5-2.7,3.3s1,3.3,2.7,3.3M202,72h1.7v-3.6c0-.8.6-1.2,1.2-1.2s1,.5,1,1.2v3.7h1.7v-4.2c0-1.4-.8-2.3-2.1-2.3s-1.4.4-1.7.8v-.6h-1.7v6.3ZM198.9,69.8c0,.7-.7,1.1-1.4,1.1s-.8-.3-.8-.7.4-.7,1-.8l1.2-.3v.6ZM197.2,72.1c.8,0,1.5-.3,1.9-.7.3.5.9.7,2,.6v-1.3c-.4,0-.5,0-.5-.4v-2.6c0-1.5-1-2.2-2.6-2.2s-2.5.9-2.7,1.9l1.6.3c.1-.6.5-.8,1.1-.8s1,.3,1,.9h0c0,0-1.6.4-1.6.4-1.3.2-2.3.8-2.3,2s.9,1.9,2.1,1.9M190,68.6v.2c0,1-.6,1.6-1.4,1.6s-1.4-.7-1.4-1.7.5-1.7,1.4-1.7,1.4.6,1.4,1.6M191.7,71.3v-5.6h-1.7v.6c-.3-.4-1-.8-1.8-.8-1.7,0-2.7,1.4-2.7,3.1s1,3.1,2.7,3.1,1.4-.3,1.8-.8v.4c0,1-.6,1.5-1.5,1.5s-1.2-.4-1.4-1l-1.6.5c.4,1.2,1.4,1.9,2.9,1.9s3.2-1.1,3.2-3M179,72h1.7v-3.6c0-.8.6-1.2,1.2-1.2s1,.5,1,1.2v3.7h1.7v-4.2c0-1.4-.8-2.3-2.1-2.3s-1.4.4-1.7.8v-.6h-1.7v6.3ZM177.6,65.7h-1.7v6.3h1.7v-6.3ZM175.9,64.9h1.7v-1.6h-1.7v1.6ZM172.9,68.6v.2c0,1-.6,1.6-1.4,1.6s-1.4-.7-1.4-1.7.5-1.7,1.4-1.7,1.4.6,1.4,1.6M174.5,71.3v-5.6h-1.7v.6c-.3-.4-1-.8-1.8-.8-1.7,0-2.7,1.4-2.7,3.1s1,3.1,2.7,3.1,1.4-.3,1.8-.8v.4c0,1-.6,1.5-1.5,1.5s-1.2-.4-1.4-1l-1.6.5c.4,1.2,1.4,1.9,2.9,1.9s3.2-1.1,3.2-3M165.6,69.8c0,.7-.7,1.1-1.4,1.1s-.8-.3-.8-.7.4-.7,1-.8l1.2-.3v.6ZM163.9,72.1c.8,0,1.5-.3,1.9-.7.3.5.9.7,2,.6v-1.3c-.4,0-.5,0-.5-.4v-2.6c0-1.5-1-2.2-2.6-2.2s-2.5.9-2.7,1.9l1.6.3c.1-.6.5-.8,1.1-.8s1,.3,1,.9h0c0,0-1.6.4-1.6.4-1.3.2-2.3.8-2.3,2s.9,1.9,2.1,1.9M157.3,63.4h-1.7v8.6h1.7v-1.9l.7-.8,1.7,2.7h1.9l-2.5-3.9,2.3-2.4h-2l-2.2,2.4v-4.8ZM150.6,68.8c0-1.2.6-1.9,1.5-1.9s1.1.5,1.3,1.1l1.4-.7c-.3-1-1.3-1.9-2.7-1.9s-3.1,1.3-3.1,3.3,1.3,3.3,3.1,3.3,2.4-.9,2.7-1.9l-1.5-.6c-.2.6-.6,1.1-1.3,1.1s-1.5-.7-1.5-1.9M146.2,69.8c0,.7-.7,1.1-1.4,1.1s-.8-.3-.8-.7.4-.7,1-.8l1.2-.3v.6ZM144.5,72.1c.8,0,1.5-.3,1.9-.7.3.5.9.7,2,.6v-1.3c-.4,0-.5,0-.5-.4v-2.6c0-1.5-1-2.2-2.6-2.2s-2.5.9-2.7,1.9l1.6.3c.1-.6.5-.8,1.1-.8s1,.3,1,.9h0c0,0-1.6.4-1.6.4-1.3.2-2.3.8-2.3,2s.9,1.9,2.1,1.9M137.2,67.3v-2.4h1.7c1,0,1.6.4,1.6,1.2s-.5,1.2-1.6,1.2h-1.7ZM137.2,68.8h1.8c2,0,3.2-.9,3.2-2.7s-1.2-2.7-3.2-2.7h-3.5v8.6h1.8v-3.2ZM129,66.9c.8,0,1.2.5,1.2,1.2h-2.6c.2-.8.7-1.2,1.4-1.2M129.1,72.1c1.3,0,2.3-.6,2.8-1.8l-1.4-.5c-.2.6-.7.9-1.4.9s-1.4-.6-1.5-1.5h4.3v-.5c0-1.8-1-3.2-2.9-3.2s-3.1,1.4-3.1,3.3,1.3,3.3,3.1,3.3M121.3,68.8c0-1.2.6-1.9,1.5-1.9s1.1.5,1.3,1.1l1.4-.7c-.3-1-1.3-1.9-2.7-1.9s-3.1,1.3-3.1,3.3,1.3,3.3,3.1,3.3,2.4-.9,2.7-1.9l-1.5-.6c-.2.6-.6,1.1-1.3,1.1s-1.5-.7-1.5-1.9M118.7,65.7h-1.7v6.3h1.7v-6.3ZM117,64.9h1.7v-1.6h-1.7v1.6ZM114,72l2.3-6.3h-1.7l-1.4,4.3-1.4-4.3h-1.7l2.3,6.3h1.7ZM109.7,65.7c-.1,0-.2,0-.4,0-.8,0-1.4.4-1.7.9v-.9h-1.7v6.3h1.7v-3.2c0-1,.7-1.5,1.5-1.5s.3,0,.5,0v-1.6ZM102,66.9c.8,0,1.2.5,1.2,1.2h-2.6c.2-.8.7-1.2,1.4-1.2M102.1,72.1c1.3,0,2.3-.6,2.8-1.8l-1.4-.5c-.2.6-.7.9-1.4.9s-1.4-.6-1.5-1.5h4.3v-.5c0-1.8-1-3.2-2.9-3.2s-3.1,1.4-3.1,3.3,1.3,3.3,3.1,3.3M91.3,70.4c.7,1,2.2,1.7,3.7,1.7s3.4-1,3.4-2.8-1.7-2.2-3-2.5c-1.1-.3-1.8-.4-1.8-1.1s.6-1,1.4-1,1.6.5,2.1,1.2l1.2-1.1c-.6-.9-1.8-1.5-3.3-1.5s-3.2,1-3.2,2.7,1.4,2.1,2.7,2.4c1.3.3,2.1.4,2.1,1.2s-.7,1.1-1.6,1.1-1.9-.5-2.5-1.4l-1.2,1.2ZM86.6,68.7v.3c0,1.1-.6,1.7-1.4,1.7s-1.5-.8-1.5-1.8.5-1.8,1.5-1.8,1.4.6,1.4,1.7M84.8,72.1c.8,0,1.4-.3,1.8-.8v.6h1.7v-8.6h-1.7v3c-.4-.5-1-.8-1.8-.8-1.7,0-2.7,1.5-2.7,3.3s1,3.3,2.7,3.3M76.9,68.8c0-1.2.6-1.9,1.4-1.9s1.4.7,1.4,1.9-.5,1.9-1.4,1.9-1.4-.7-1.4-1.9M81.4,68.8c0-2-1.3-3.3-3.1-3.3s-3.1,1.3-3.1,3.3,1.3,3.3,3.1,3.3,3.1-1.3,3.1-3.3M70,68.8c0-1.2.6-1.9,1.4-1.9s1.4.7,1.4,1.9-.5,1.9-1.4,1.9-1.4-.7-1.4-1.9M74.6,68.8c0-2-1.3-3.3-3.1-3.3s-3.1,1.3-3.1,3.3,1.3,3.3,3.1,3.3,3.1-1.3,3.1-3.3M64.2,72v-3.4h3.5v-1.5h-3.5v-2.1h4.1v-1.5h-5.9v8.6h1.7Z"/>
  </g>
  <polygon class="cls-3" points="61.6 52.1 64.7 52.1 64.7 33.6 61.6 33.6 61.6 29.5 81.6 29.5 81.6 37.1 77.2 37.1 77.2 33.5 69.3 33.5 69.3 40.7 77.4 40.7 77.4 44.6 69.3 44.6 69.3 52.2 77.3 52.2 77.3 48.6 81.6 48.6 81.6 56.2 61.6 56.2 61.6 52.1"/>
  <polygon class="cls-3" points="84.4 42.2 82.4 42.2 82.4 38.4 91.5 38.4 91.5 41.9 88.9 41.9 93.2 51.2 97.5 41.9 94.8 41.9 94.8 38.4 103.8 38.4 103.8 42.2 101.8 42.2 94.7 56.6 91.5 56.6 84.4 42.2"/>
  <g class="cls-6">
    <path class="cls-3" d="M109.2,45.7h8.7c0-2.4-1.7-4.1-4.3-4.1s-3.9,1.1-4.4,4.1M109.2,48.8c.6,2.8,2.9,4,5.9,4s4.4-.7,6.5-1.9l-.4,4c-1.9,1.1-4.2,1.6-6.8,1.6-5.8,0-9.9-3.7-9.9-9.2s3.5-9.3,9-9.3,8.7,3.8,8.7,8.5,0,1.6-.2,2.2h-12.9Z"/>
    <path class="cls-3" d="M140.7,41c0,1.5-1.2,2.8-2.6,2.8s-2.2-.8-2.6-1.6c-1.3.4-2.7,1.8-3.5,3.4v7h3.1v3.7h-10.2v-3.7h2.6v-10.4h-2.6v-3.7h6.9v4c1.5-2.4,3.4-4.4,5.7-4.4s3.3,1.3,3.3,2.9"/>
    <path class="cls-3" d="M142.9,42.9c0-8.3,6.3-14,14.1-14s10.4,3.3,10.4,6.5-1.3,3.3-2.9,3.3-3.1-1.1-3.1-2.9.1-1.1.3-1.4c-.8-.6-2.3-1.2-4.8-1.2-5.2,0-9.2,3.9-9.2,9.6s4.3,9.7,8.8,9.7,4.8-.6,6.5-1.7v-4.6h-6.7v-3.9h11.2v13.9h-4.4v-2c-1.9,1.5-4.3,2.5-7.3,2.5-6.6,0-12.9-5.2-12.9-13.8"/>
    <path class="cls-3" d="M187.6,41c0,1.5-1.2,2.8-2.6,2.8s-2.2-.8-2.6-1.6c-1.3.4-2.7,1.8-3.5,3.4v7h3.1v3.7h-10.2v-3.7h2.6v-10.4h-2.6v-3.7h6.9v4c1.5-2.4,3.4-4.4,5.7-4.4s3.3,1.3,3.3,2.9"/>
    <path class="cls-3" d="M192.7,45.7h8.7c0-2.4-1.7-4.1-4.3-4.1s-3.9,1.1-4.4,4.1M192.7,48.8c.6,2.8,2.9,4,5.9,4s4.4-.7,6.5-1.9l-.4,4c-1.9,1.1-4.2,1.6-6.8,1.6-5.8,0-9.9-3.7-9.9-9.2s3.5-9.3,9-9.3,8.7,3.8,8.7,8.5,0,1.6-.2,2.2h-12.9Z"/>
    <path class="cls-3" d="M213,45.7h8.7c0-2.4-1.7-4.1-4.3-4.1s-3.9,1.1-4.4,4.1M213.1,48.8c.6,2.8,2.9,4,5.9,4s4.4-.7,6.5-1.9l-.4,4c-1.9,1.1-4.2,1.6-6.8,1.6-5.8,0-9.9-3.7-9.9-9.2s3.5-9.3,9-9.3,8.7,3.8,8.7,8.5,0,1.6-.2,2.2h-12.9Z"/>
    <path class="cls-3" d="M235.6,41.3c1.7-1.7,3.6-3.2,6.2-3.2s3.7.9,4.6,2.3c.6,1,.9,2.2.9,3.7v8.5h2.6v3.7h-9.5v-3.7h2.4v-7.4c0-.7-.1-1.4-.4-1.8-.4-.8-1.1-1.2-2.2-1.2-1.5,0-3.2.9-4.6,2.1v8.4h2.4v3.7h-9.5v-3.7h2.6v-10.4h-2.6v-3.7h6.9v2.8Z"/>
    <path class="cls-4" d="M65.9,13.2c-1.6-1.3-3.4-2.1-5.3-2.4-3.8-.6-8.1.6-11.4,3.3-6.6,5.4-7.4,18.1-7.8,24.9v1c-.5,6.5-3.5,11.3-5.7,13.9-.2-3.6-.3-6.7-.3-7.8-.1-2.5-.4-7.9-.5-10.1,0-.5,0-2.3.3-3.7.7-2.6,2.4-5.1,2.4-5.1,1-1.5,1.7-3.2,1.7-3.2,1.2-3,.8-9.8.8-9.8-.5-9.6-1.6-13.7-1.6-13.7C38.4.2,38.2,0,37.9,0s-.4.2-.5.4c0,0-.8,2.7-1,13.5,0,.3-.1.5-.4.5s-.4-.2-.4-.5c-.2-10.8-.6-13.4-.6-13.4C35,.2,34.8,0,34.5,0s-.5.2-.5.6c0,0-.6,5-.5,14.5,0,.2-.2.4-.4.4s-.4-.2-.4-.4c0-9.5-.5-14.5-.5-14.5C32.1.2,31.8,0,31.6,0s-.5.2-.5.6c0,0-.4,2.5-.6,13.4,0,.3-.1.5-.4.5s-.4-.2-.4-.5c-.2-10.8-1-13.5-1-13.5C28.6.2,28.4,0,28.2,0s-.4.2-.5.4c0,0-1.1,4.1-1.6,13.7,0,0-.3,6.8.8,9.8,0,0,.7,1.8,1.7,3.2,0,0,1.6,2.4,2.4,5.1.4,1.4.3,3.2.3,3.7-.1,2.3-.4,7.6-.5,10.1,0,1.2-.2,4.2-.3,7.8-2.2-2.7-5.2-7.4-5.7-13.9v-.9c-.5-6.8-1.3-19.5-7.9-24.9-3.3-2.7-7.6-3.9-11.4-3.3-2,.3-3.7,1.1-5.3,2.4-.2.2-.3.5-.1.7.1.2.4.3.7.2,1.3-.6,2.8-.9,4.2-.8,1.5,0,2.8.4,3.9,1,.8.5,1.6,1.3,2.3,2.3,1,1.5,1.8,3.6,2.3,5.9.5,2.6.6,5.1.7,7.5.2,5,.4,9.7,4.1,16.4,0,0,0,0,0,0,4,6.9,9.7,9.1,12,9.7-.2,5.9-.4,12.5-.3,14.4,0,0,.2,3.7.9,8,.2,1,1,1.7,2,1.7s1.9-.7,2-1.7c.7-4.3.9-8,.9-8,.2-1.9,0-8.5-.3-14.4,2.4-.6,8-2.8,12-9.7,0,0,0,0,0,0,3.7-6.7,3.9-11.4,4.1-16.4.1-2.4.2-4.9.7-7.5.5-2.3,1.2-4.4,2.3-5.9.7-1.1,1.5-1.8,2.3-2.3,1.1-.6,2.4-1,3.9-1,1.4,0,2.9.2,4.2.8.3.1.6,0,.7-.2.1-.2,0-.6-.1-.7"/>
  </g>
</svg>